<svg xmlns="http://www.w3.org/2000/svg" xmlns:xlink="http://www.w3.org/1999/xlink" width="512" height="512" viewBox="0 0 512 512">
  <defs>
    <clipPath id="clip-favicon-512x512">
      <rect width="512" height="512"/>
    </clipPath>
  </defs>
  <g id="favicon-512x512" clip-path="url(#clip-favicon-512x512)">
    <path id="BizStream_Icon_1C_RGB" data-name="BizStream Icon 1C RGB" d="M530,274c0,141.41-114.591,256-256,256S18,415.409,18,274A254.843,254.843,0,0,1,91.82,94.258V274c0,100.5,81.744,182.18,182.18,182.18,100.5,0,182.248-81.744,182.248-182.18C456.248,173.5,374.5,91.752,274,91.752a181.526,181.526,0,0,0-133.012,57.9V55.249A254.643,254.643,0,0,1,274,18C415.409,18,530,132.59,530,274Zm-235.547,2.777c-3.048,20.792-7.992,42.531-20.182,63.052-6.028,10.159-28.512,40.635-67.86,48.491A132.03,132.03,0,0,0,274,407.012c73.346,0,133.012-59.666,133.012-133.012,0-27.022-6.637-70.7-49.033-72.127C307.253,200.112,297.162,259.371,294.453,276.777Zm-40.906-5.553c3.048-20.792,7.992-42.531,20.182-63.052,6.027-10.159,28.512-40.635,67.86-48.491A132.03,132.03,0,0,0,274,140.988c-73.346,0-133.012,59.666-133.012,133.012,0,27.022,6.637,70.7,49.033,72.127C240.747,347.888,250.838,288.629,253.547,271.223Z" transform="translate(-18 -18)" fill="#00c4e9"/>
  </g>
</svg>
